<svg xmlns="http://www.w3.org/2000/svg" xmlns:xlink="http://www.w3.org/1999/xlink" width="500" zoomAndPan="magnify" viewBox="0 0 375 374.999991" height="500" preserveAspectRatio="xMidYMid meet" version="1.0"><defs><g/><clipPath id="3db867710f"><path d="M 264.617188 75 L 370 75 L 370 199.820312 L 264.617188 199.820312 Z M 264.617188 75 " clip-rule="nonzero"/></clipPath><clipPath id="62c5a1719f"><path d="M 62.019531 326.242188 L 315.519531 326.242188 L 315.519531 363.582031 L 62.019531 363.582031 Z M 62.019531 326.242188 " clip-rule="nonzero"/></clipPath><clipPath id="ccd5004b5c"><path d="M 99 11.207031 L 278.996094 11.207031 L 278.996094 186.707031 L 99 186.707031 Z M 99 11.207031 " clip-rule="nonzero"/></clipPath><clipPath id="1c15ccbe37"><path d="M 3.664062 63 L 111.664062 63 L 111.664062 189.351562 L 3.664062 189.351562 Z M 3.664062 63 " clip-rule="nonzero"/></clipPath><clipPath id="2a2750a9e5"><path d="M 165.457031 177.507812 L 180.457031 177.507812 L 180.457031 192.507812 L 165.457031 192.507812 Z M 165.457031 177.507812 " clip-rule="nonzero"/></clipPath><clipPath id="64a4a33475"><path d="M 203.363281 174.34375 L 220.613281 174.34375 L 220.613281 191.59375 L 203.363281 191.59375 Z M 203.363281 174.34375 " clip-rule="nonzero"/></clipPath><clipPath id="2235d18b66"><path d="M 62.054688 162.785156 L 315.347656 162.785156 L 315.347656 253.25 L 62.054688 253.25 Z M 62.054688 162.785156 " clip-rule="nonzero"/></clipPath></defs><g clip-path="url(#3db867710f)"><path fill="#ff6100" d="M 287.523438 136.386719 C 285.492188 135.320312 284.785156 132.628906 285.894531 130.289062 L 302.484375 95.601562 C 302.644531 95.269531 302.828125 94.945312 303.039062 94.644531 C 304.824219 92.003906 308.089844 90.925781 310.671875 92.285156 C 313.558594 93.796875 314.433594 97.71875 312.597656 100.902344 L 293.464844 134.257812 C 292.175781 136.507812 289.554688 137.449219 287.523438 136.386719 Z M 323.109375 108.675781 C 325.054688 105.558594 328.925781 104.472656 331.621094 106.296875 C 334.242188 108.082031 334.707031 111.921875 332.710938 114.867188 C 332.660156 114.9375 332.609375 115.019531 332.558594 115.089844 L 309.773438 146.066406 C 308.230469 148.164062 305.53125 148.796875 303.636719 147.507812 C 301.738281 146.214844 301.324219 143.464844 302.695312 141.265625 Z M 352.386719 120.59375 C 354.59375 122.484375 354.796875 125.925781 353.011719 128.554688 C 352.800781 128.855469 352.578125 129.152344 352.316406 129.433594 L 326.183594 157.628906 C 324.417969 159.53125 321.65625 159.855469 319.910156 158.363281 C 318.175781 156.875 318.074219 154.089844 319.691406 152.066406 L 343.652344 121.984375 C 345.949219 119.109375 349.914062 118.472656 352.386719 120.59375 Z M 316.140625 171.75 C 325.148438 173.164062 334.203125 169.613281 339.839844 162.46875 L 366.578125 128.625 C 371.105469 122.910156 369.8125 114.554688 363.78125 110.460938 L 315.898438 77.960938 C 309.863281 73.867188 301.617188 75.753906 297.964844 82.0625 L 276.363281 119.382812 C 271.800781 127.265625 271.84375 136.992188 276.460938 144.828125 L 288.050781 164.460938 L 261.417969 203.667969 L 166.582031 203.667969 L 153.570312 186.332031 C 151.898438 184.113281 150.738281 181.5625 150.160156 178.859375 L 149.171875 174.121094 C 148.902344 172.863281 148.742188 171.601562 148.667969 170.339844 C 148.449219 166.378906 149.152344 162.40625 150.636719 158.675781 C 151.402344 156.761719 151.734375 154.695312 151.625 152.628906 C 151.472656 149.9375 150.546875 147.246094 148.800781 144.917969 L 87.429688 75.792969 L 91.03125 86.609375 L 126.441406 133.855469 C 128.042969 136.003906 128.890625 138.464844 129.023438 140.945312 C 129.265625 145.136719 127.460938 149.351562 123.847656 152.09375 C 117.917969 156.578125 109.285156 155.210938 104.847656 149.273438 L 69.597656 102.234375 L 60.167969 95.660156 L 109.144531 173.808594 C 112.210938 177.902344 117.0625 179.917969 121.851562 179.597656 C 127.175781 179.234375 132.492188 180.242188 137.171875 182.78125 L 141.820312 185.3125 C 144.273438 186.640625 146.398438 188.484375 148.0625 190.703125 L 157.796875 203.667969 L 74.289062 203.667969 L 74.289062 211.226562 L 355.160156 211.226562 L 355.160156 203.667969 L 269.535156 203.667969 L 293.609375 168.234375 L 316.140625 171.75 " fill-opacity="1" fill-rule="nonzero"/></g><g clip-path="url(#62c5a1719f)"><path fill="#ff6100" d="M 310.3125 326.332031 L 67.214844 326.332031 C 64.34375 326.332031 62.015625 328.664062 62.015625 331.546875 L 62.015625 344.960938 C 62.015625 355.25 70.335938 363.59375 80.601562 363.59375 L 296.925781 363.59375 C 307.191406 363.59375 315.511719 355.25 315.511719 344.960938 L 315.511719 331.546875 C 315.511719 328.664062 313.183594 326.332031 310.3125 326.332031 " fill-opacity="1" fill-rule="nonzero"/></g><g clip-path="url(#ccd5004b5c)"><path fill="#ff6100" d="M 182.226562 143.863281 C 183.207031 145.816406 184.039062 147.59375 184.976562 149.320312 C 187.644531 154.234375 188.171875 159.523438 187.734375 164.960938 C 187.277344 170.644531 185.847656 176.117188 182.421875 180.734375 C 178.046875 186.632812 172.535156 191.257812 165.085938 192.746094 C 158.464844 194.074219 152.238281 192.699219 146.457031 189.183594 C 143.726562 187.523438 141.039062 185.855469 139.210938 183.144531 C 138.808594 182.550781 138.445312 181.917969 138.152344 181.261719 C 137.769531 180.421875 137.429688 180.472656 136.898438 181.148438 C 135.0625 183.480469 133.996094 186.148438 133.578125 189.050781 C 132.507812 196.480469 135.167969 202.695312 140.082031 208.078125 C 142.960938 211.234375 146.445312 213.59375 150.390625 215.277344 C 151.015625 215.542969 152.140625 215.753906 151.929688 216.507812 C 151.6875 217.371094 150.640625 216.78125 150 216.703125 C 146.824219 216.3125 143.84375 215.199219 140.875 214.046875 C 135.023438 211.78125 129.21875 209.414062 123.976562 205.882812 C 117.410156 201.460938 112.480469 195.652344 109.121094 188.511719 C 107.980469 186.078125 107.550781 183.457031 107.183594 180.835938 C 106.539062 176.246094 106.925781 171.71875 108.238281 167.265625 C 109.851562 161.789062 113.476562 157.742188 117.675781 154.152344 C 121.3125 151.039062 125.179688 148.226562 129.265625 145.703125 C 133.691406 142.972656 137.953125 139.992188 141.152344 135.792969 C 144.96875 130.785156 147.578125 125.25 148.40625 118.953125 C 148.480469 118.363281 148.664062 117.777344 148.886719 117.222656 C 149.320312 116.136719 149.945312 115.882812 150.835938 116.632812 C 155.140625 120.246094 157.550781 124.875 157.332031 130.507812 C 157.175781 134.617188 155.613281 138.367188 153.296875 141.824219 C 151.78125 144.082031 149.921875 146.144531 149.015625 148.777344 C 148.691406 149.726562 148.3125 150.667969 148.117188 151.644531 C 147.253906 155.929688 150.9375 158.839844 155.0625 158.015625 C 158.910156 157.25 161.878906 155.042969 164.371094 152.316406 C 172.015625 143.957031 174.613281 134.011719 172.742188 122.96875 C 172.019531 118.710938 169.988281 114.855469 167.691406 111.1875 C 165 106.890625 161.816406 102.949219 158.789062 98.890625 C 149.464844 86.386719 143.882812 72.382812 142.679688 56.820312 C 141.882812 46.527344 143.890625 36.71875 149.050781 27.636719 C 151.730469 22.917969 154.804688 18.542969 159.125 15.148438 C 161.15625 13.554688 163.257812 12.074219 165.839844 11.480469 C 166.34375 11.363281 166.871094 11.296875 167.386719 11.277344 C 167.703125 11.261719 168.042969 11.359375 168.207031 11.6875 C 168.398438 12.0625 168.128906 12.308594 167.890625 12.511719 C 163.660156 16.160156 162.296875 21.222656 161.183594 26.339844 C 159.890625 32.257812 159.746094 38.214844 161.503906 44.089844 C 162.5625 47.617188 164.757812 50.527344 167.023438 53.355469 C 172.113281 59.707031 177.953125 65.355469 183.941406 70.847656 C 194.855469 80.859375 201.746094 92.949219 203.703125 107.746094 C 204.3125 112.34375 203.992188 116.863281 203.503906 121.410156 C 203.132812 124.875 202.445312 128.308594 202.648438 131.824219 C 202.722656 133.078125 202.933594 134.289062 203.339844 135.472656 C 204.996094 140.277344 209.398438 141.300781 213.1875 139.847656 C 217.339844 138.25 219.992188 135.125 221.144531 130.90625 C 223.382812 122.710938 222.984375 114.625 219.664062 106.746094 C 217.285156 101.109375 214.183594 95.980469 209.730469 91.65625 C 206.738281 88.75 204.082031 85.496094 201.917969 81.890625 C 199.902344 78.523438 198.792969 74.863281 198.441406 70.980469 C 198.292969 69.375 198.425781 67.773438 199.089844 66.265625 C 199.253906 65.898438 199.464844 65.535156 199.972656 65.578125 C 200.445312 65.625 200.65625 65.921875 200.761719 66.355469 C 202.085938 71.902344 206.128906 75.308594 210.375 78.585938 C 216.238281 83.109375 222.703125 86.78125 228.476562 91.425781 C 235.609375 97.164062 239.203125 104.746094 240.152344 113.738281 C 240.75 119.421875 239.328125 124.722656 237.425781 129.964844 C 235.886719 134.191406 234.507812 138.464844 233.722656 142.910156 C 232.949219 147.289062 233.546875 151.449219 235.515625 155.429688 C 237.410156 159.257812 242.660156 160.28125 245.90625 157.488281 C 248.425781 155.324219 249.292969 152.429688 249.421875 149.320312 C 249.601562 145.027344 249.648438 140.722656 247.875 136.644531 C 247.390625 135.53125 248.011719 134.84375 249.230469 134.984375 C 249.503906 135.015625 249.800781 135.066406 250.039062 135.199219 C 253.765625 137.261719 257.121094 139.628906 259.285156 143.539062 C 262.109375 148.652344 263.167969 153.976562 262.042969 159.660156 C 261.46875 162.5625 260.289062 165.332031 259.820312 168.277344 C 259.492188 170.347656 259.316406 172.421875 259.449219 174.511719 C 259.542969 175.964844 259.996094 177.246094 261.269531 178.140625 C 263.542969 179.742188 266.042969 178.96875 266.960938 176.332031 C 267.800781 173.921875 267.632812 171.511719 266.882812 169.117188 C 266.535156 168.007812 266.140625 166.910156 265.792969 165.800781 C 265.613281 165.230469 265.351562 164.585938 265.898438 164.113281 C 266.40625 163.675781 267.042969 163.871094 267.628906 164.046875 C 270.847656 165.011719 273.105469 167.183594 274.890625 169.902344 C 278.503906 175.402344 278.976562 181.277344 276.773438 187.390625 C 273.277344 197.078125 266.609375 204.058594 257.894531 209.3125 C 253.765625 211.804688 249.378906 213.660156 244.773438 215.039062 C 244.195312 215.210938 243.613281 215.367188 243.023438 215.492188 C 242.851562 215.527344 242.582031 215.480469 242.480469 215.363281 C 242.332031 215.195312 242.519531 215 242.636719 214.839844 C 243.363281 213.878906 244.128906 212.941406 244.808594 211.949219 C 248.636719 206.355469 250.683594 200.167969 250.578125 193.398438 C 250.488281 187.46875 248.132812 182.507812 243.390625 178.78125 C 242.347656 177.960938 242.046875 178.011719 241.359375 179.191406 C 240.710938 180.300781 240.425781 181.570312 239.773438 182.691406 C 237.019531 187.410156 232.042969 188.210938 227.96875 184.570312 C 223.949219 180.984375 221.261719 176.539062 219.207031 171.613281 C 217.949219 168.601562 217.246094 165.417969 215.96875 162.429688 C 215.570312 161.496094 215 160.671875 214.320312 159.925781 C 213.90625 159.46875 213.375 159.273438 212.792969 159.496094 C 212.222656 159.707031 212.085938 160.238281 212.09375 160.78125 C 212.105469 161.664062 212.140625 162.546875 212.1875 163.425781 C 212.484375 168.90625 212.238281 174.335938 210.578125 179.613281 C 209.816406 182.03125 208.496094 184.117188 206.636719 185.867188 C 204.101562 188.242188 201.003906 188.390625 198.378906 186.078125 C 196.277344 184.226562 195.066406 181.894531 195.03125 179.011719 C 194.988281 175.679688 195.609375 172.367188 195.285156 169.035156 C 194.605469 162.011719 193.261719 155.203125 188.804688 149.425781 C 187.550781 147.796875 186.085938 146.359375 184.558594 144.992188 C 183.960938 144.460938 183.261719 144.058594 182.226562 143.863281 Z M 164.253906 97.804688 C 164.015625 97.285156 163.875 96.960938 163.726562 96.644531 C 163.074219 95.261719 162.351562 93.917969 161.476562 92.664062 C 156.199219 85.113281 151.292969 77.367188 148.464844 68.503906 C 148.332031 68.082031 148.175781 67.632812 147.539062 67.269531 C 150.441406 78.96875 155.320312 89.339844 164.253906 97.804688 Z M 196.667969 102.25 C 196.289062 102.664062 196.363281 102.953125 196.414062 103.222656 C 197.605469 109.421875 197.039062 115.578125 196.003906 121.730469 C 195.933594 122.144531 195.675781 122.765625 196.125 122.925781 C 196.640625 123.113281 196.699219 122.40625 196.929688 122.070312 C 197.019531 121.941406 197.066406 121.78125 197.125 121.632812 C 199.152344 116.726562 199.46875 111.695312 198.257812 106.550781 C 197.914062 105.085938 197.542969 103.625 196.667969 102.25 Z M 230.066406 99.785156 C 234.769531 107.554688 236.152344 115.914062 234.71875 124.878906 C 236.003906 123.585938 236.945312 117.472656 236.273438 112.816406 C 235.566406 107.882812 233.789062 103.339844 230.066406 99.785156 Z M 152.875 136.15625 C 152.179688 136.257812 152.027344 136.523438 151.90625 136.753906 C 151.148438 138.160156 149.972656 139.179688 148.84375 140.273438 C 147.4375 141.640625 146.089844 143.105469 144.9375 144.691406 C 143.308594 146.9375 142.25 149.453125 142.535156 152.328125 C 142.683594 153.820312 142.929688 155.300781 144.453125 156.339844 C 143.136719 151.632812 144.503906 147.695312 147.207031 144.074219 C 148.140625 142.820312 149.148438 141.621094 150.105469 140.378906 C 151.089844 139.097656 152.070312 137.808594 152.875 136.15625 Z M 271.078125 187.054688 C 269.4375 190.621094 267.234375 193.445312 264.808594 196.132812 C 262.375 198.832031 259.71875 201.273438 256.707031 203.542969 C 261.464844 203.167969 271.75 192.136719 271.078125 187.054688 Z M 168.664062 126.511719 C 167.960938 119.03125 165.011719 112.535156 160.207031 106.824219 C 159.351562 105.8125 158.460938 104.828125 157.582031 103.835938 C 157.332031 103.558594 157.011719 103.273438 156.644531 103.523438 C 156.191406 103.832031 156.445312 104.246094 156.65625 104.585938 C 156.914062 104.992188 157.214844 105.367188 157.503906 105.753906 C 158.976562 107.726562 160.199219 109.835938 161.175781 112.097656 C 164.273438 119.277344 165.898438 126.703125 165.339844 134.574219 C 165.070312 138.421875 164.136719 141.988281 162.058594 145.242188 C 161.84375 145.582031 161.625 145.921875 161.441406 146.277344 C 161.269531 146.609375 161.199219 146.96875 161.511719 147.273438 C 161.863281 147.617188 162.253906 147.542969 162.621094 147.324219 C 163.328125 146.90625 163.847656 146.296875 164.320312 145.636719 C 167.554688 141.136719 168.847656 136.058594 168.882812 130.597656 C 168.832031 129.230469 168.789062 127.875 168.664062 126.511719 Z M 102.296875 185.136719 C 102.882812 186.234375 103.621094 187.246094 104.570312 188.082031 C 104.851562 188.328125 105.160156 188.539062 105.542969 188.308594 C 105.875 188.109375 105.8125 187.75 105.808594 187.4375 C 105.804688 187.019531 105.554688 186.6875 105.363281 186.335938 C 104.710938 185.132812 104.175781 183.886719 103.835938 182.558594 C 102.972656 179.183594 102.808594 175.769531 103.117188 172.304688 C 103.464844 168.398438 104.441406 164.738281 106.851562 161.554688 C 108.40625 159.507812 109.839844 157.371094 111.683594 155.558594 C 112.03125 155.21875 112.273438 154.820312 111.957031 154.394531 C 111.652344 153.980469 111.164062 153.835938 110.65625 154.050781 C 110.363281 154.175781 110.105469 154.378906 109.832031 154.546875 C 107.765625 155.808594 106.285156 157.675781 104.75 159.476562 C 101.300781 163.539062 98.984375 168.066406 99.09375 172.859375 C 99.0625 177.71875 100.363281 181.519531 102.296875 185.136719 Z M 247.070312 109.554688 C 246.917969 109.171875 246.671875 108.796875 246.199219 108.863281 C 245.632812 108.941406 245.738281 109.429688 245.75 109.820312 C 245.875 113.613281 244.964844 117.183594 243.566406 120.6875 C 241.425781 126.035156 239.148438 131.34375 239.125 137.277344 C 239.117188 139.398438 239.503906 141.40625 240.097656 143.402344 C 240.210938 143.777344 240.398438 144.230469 240.890625 144.179688 C 241.476562 144.121094 241.484375 143.582031 241.480469 143.15625 C 241.464844 142.15625 241.316406 141.152344 241.355469 140.160156 C 241.59375 134.464844 242.972656 129.085938 245.953125 124.171875 C 247.515625 121.59375 248.113281 118.773438 248.117188 116.199219 C 248.097656 113.660156 247.863281 111.5625 247.070312 109.554688 Z M 172.664062 49.359375 C 170.867188 46.605469 169.875 43.503906 168.304688 40.667969 C 168.246094 40.5625 168.207031 40.449219 168.171875 40.332031 C 166.710938 35.625 166.359375 30.785156 166.425781 25.886719 C 166.453125 23.964844 167.136719 22.117188 166.976562 20.179688 C 166.9375 19.703125 166.90625 19.242188 166.339844 19.199219 C 165.839844 19.160156 165.65625 19.589844 165.589844 19.992188 C 165.316406 21.566406 164.890625 23.113281 164.605469 24.675781 C 164.0625 27.625 163.839844 30.613281 163.804688 33.632812 C 163.777344 36.039062 164.121094 38.390625 164.785156 40.605469 C 166.359375 45.839844 169.777344 49.957031 173.621094 53.722656 C 174.390625 54.476562 175.332031 55.015625 176.8125 55.195312 C 175.070312 53.210938 173.910156 51.261719 172.664062 49.359375 Z M 146.386719 93.464844 C 144.683594 90.769531 142.558594 88.417969 139.871094 86.632812 C 139.476562 86.371094 138.910156 85.90625 138.457031 86.359375 C 137.964844 86.855469 138.554688 87.308594 138.816406 87.722656 C 140.027344 89.613281 141.347656 91.445312 142.460938 93.394531 C 144.476562 96.914062 146.296875 100.53125 146.871094 104.628906 C 147.097656 106.210938 147.332031 107.796875 147.585938 109.375 C 147.632812 109.679688 147.714844 110.082031 148.101562 110.105469 C 148.542969 110.132812 148.496094 109.6875 148.605469 109.410156 C 149.273438 107.6875 149.339844 105.890625 149.261719 103.90625 C 149.589844 100.195312 148.429688 96.691406 146.386719 93.464844 Z M 188.660156 177.246094 C 188.628906 176.90625 188.734375 176.453125 188.222656 176.394531 C 187.828125 176.34375 187.710938 176.710938 187.5625 176.992188 C 187.488281 177.132812 187.429688 177.285156 187.367188 177.429688 C 185.898438 180.742188 184.203125 183.914062 181.707031 186.59375 C 179.261719 189.222656 176.707031 191.703125 173.242188 192.980469 C 172.5625 193.230469 171.875 193.4375 171.148438 193.515625 C 170.804688 193.550781 170.351562 193.621094 170.304688 194.035156 C 170.265625 194.425781 170.714844 194.472656 170.996094 194.574219 C 172.019531 194.949219 173.058594 195.234375 174.175781 195.050781 C 176.191406 194.722656 178.011719 193.976562 179.691406 192.792969 C 183.621094 190.023438 186.101562 186.226562 187.6875 181.78125 C 188.140625 180.507812 188.738281 179.257812 188.660156 177.761719 C 188.660156 177.644531 188.675781 177.445312 188.660156 177.246094 Z M 193.453125 58.277344 C 194.199219 59.742188 195.234375 60.9375 196.722656 61.707031 C 197.105469 61.90625 197.488281 62.050781 197.847656 61.761719 C 198.25 61.4375 198.210938 60.984375 198.023438 60.550781 C 197.910156 60.292969 197.765625 60.050781 197.621094 59.8125 C 195.457031 56.207031 194.605469 52.25 194.460938 48.105469 C 194.398438 46.335938 194.5 44.578125 194.734375 42.828125 C 194.792969 42.394531 194.699219 42 194.234375 41.851562 C 193.761719 41.695312 193.484375 41.996094 193.261719 42.363281 C 192 44.449219 190.988281 46.613281 191.125 48.417969 C 191.21875 52.367188 191.992188 55.410156 193.453125 58.277344 Z M 245.320312 186.5625 C 245.292969 186.757812 245.269531 186.960938 245.277344 187.160156 C 245.507812 192.855469 243.898438 198.167969 241.910156 203.40625 C 240.929688 205.992188 239.773438 208.507812 238.605469 211.019531 C 238.449219 211.359375 238.132812 211.792969 238.570312 212.105469 C 239.046875 212.449219 239.285156 211.929688 239.535156 211.664062 C 240.972656 210.140625 242.328125 208.53125 243.265625 206.660156 C 245.769531 201.667969 247.285156 196.441406 246.628906 190.78125 C 246.457031 189.269531 246.378906 187.714844 245.535156 186.289062 C 245.40625 186.445312 245.328125 186.5 245.320312 186.5625 Z M 141.332031 205.886719 C 142.183594 206.820312 143.261719 207.582031 144.449219 208.125 C 144.78125 208.273438 145.152344 208.492188 145.414062 208.085938 C 145.636719 207.742188 145.328125 207.488281 145.09375 207.273438 C 142.519531 204.933594 140.902344 201.910156 139.179688 198.972656 C 138.035156 197.019531 137.253906 194.917969 136.878906 192.675781 C 136.664062 191.375 136.449219 190.074219 136.234375 188.773438 C 136.203125 188.578125 136.210938 188.320312 135.988281 188.273438 C 135.65625 188.203125 135.636719 188.503906 135.570312 188.730469 C 135.277344 189.734375 135.03125 190.746094 135.09375 191.550781 C 135.210938 197.363281 137.683594 201.902344 141.332031 205.886719 Z M 190.167969 168.503906 C 190.074219 168.140625 190.066406 167.582031 189.546875 167.621094 C 189.050781 167.65625 189.046875 168.199219 189.046875 168.574219 C 189.050781 169.953125 188.5625 171.246094 188.394531 172.589844 C 188.34375 172.992188 188.132812 173.445312 188.667969 173.597656 C 189.152344 173.738281 189.355469 173.28125 189.546875 172.9375 C 190.101562 171.925781 190.167969 170.796875 190.34375 169.59375 C 190.296875 169.289062 190.265625 168.890625 190.167969 168.503906 Z M 190.167969 168.503906 " fill-opacity="1" fill-rule="nonzero"/></g><g clip-path="url(#1c15ccbe37)"><path fill="#ff6100" d="M 231.167969 124.582031 C 229.136719 123.515625 228.429688 120.824219 229.539062 118.484375 L 246.128906 83.796875 C 246.289062 83.464844 246.472656 83.140625 246.683594 82.839844 C 248.46875 80.199219 251.734375 79.121094 254.316406 80.480469 C 257.203125 81.992188 258.078125 85.914062 256.242188 89.097656 L 237.109375 122.453125 C 235.820312 124.703125 233.199219 125.644531 231.167969 124.582031 Z M 266.753906 96.871094 C 268.699219 93.753906 272.570312 92.667969 275.265625 94.492188 C 277.886719 96.277344 278.351562 100.117188 276.355469 103.0625 C 276.304688 103.132812 276.253906 103.214844 276.203125 103.285156 L 253.417969 134.261719 C 251.875 136.359375 249.175781 136.992188 247.28125 135.703125 C 245.382812 134.410156 244.96875 131.660156 246.339844 129.460938 Z M 296.03125 108.789062 C 298.238281 110.679688 298.441406 114.121094 296.65625 116.75 C 296.445312 117.050781 296.222656 117.34375 295.960938 117.625 L 269.828125 145.824219 C 268.0625 147.726562 265.300781 148.050781 263.554688 146.558594 C 261.820312 145.070312 261.71875 142.285156 263.335938 140.257812 L 287.296875 110.175781 C 289.597656 107.304688 293.558594 106.667969 296.03125 108.789062 Z M 259.785156 159.945312 C 268.792969 161.359375 277.847656 157.808594 283.484375 150.664062 L 310.222656 116.820312 C 314.75 111.105469 313.457031 102.75 307.429688 98.65625 L 259.542969 66.15625 C 253.507812 62.0625 245.261719 63.945312 241.609375 70.257812 L 220.007812 107.578125 C 215.445312 115.460938 215.488281 125.1875 220.105469 133.019531 L 231.695312 152.65625 L 205.0625 191.863281 L 110.226562 191.863281 L 97.214844 174.523438 C 95.542969 172.308594 94.382812 169.753906 93.804688 167.054688 L 92.820312 162.316406 C 92.546875 161.058594 92.386719 159.796875 92.3125 158.535156 C 92.09375 154.574219 92.796875 150.601562 94.28125 146.871094 C 95.046875 144.957031 95.378906 142.890625 95.269531 140.824219 C 95.117188 138.132812 94.191406 135.441406 92.445312 133.113281 L 31.074219 63.988281 L 34.675781 74.804688 L 70.085938 122.050781 C 71.691406 124.199219 72.535156 126.660156 72.667969 129.140625 C 72.910156 133.332031 71.105469 137.546875 67.492188 140.289062 C 61.5625 144.773438 52.929688 143.40625 48.492188 137.46875 L 13.242188 90.429688 L 3.8125 83.855469 L 52.789062 162.003906 C 55.855469 166.097656 60.707031 168.109375 65.496094 167.792969 C 70.820312 167.425781 76.136719 168.433594 80.816406 170.976562 L 85.464844 173.507812 C 87.917969 174.835938 90.046875 176.679688 91.707031 178.898438 L 101.441406 191.863281 L 17.933594 191.863281 L 17.933594 199.421875 L 298.804688 199.421875 L 298.804688 191.863281 L 213.179688 191.863281 L 237.253906 156.429688 L 259.785156 159.945312 " fill-opacity="1" fill-rule="nonzero"/></g><g clip-path="url(#2a2750a9e5)"><path fill="#ff6100" d="M 180.457031 185.007812 C 180.457031 185.5 180.410156 185.988281 180.3125 186.472656 C 180.21875 186.953125 180.074219 187.421875 179.886719 187.878906 C 179.699219 188.332031 179.46875 188.765625 179.195312 189.175781 C 178.921875 189.585938 178.609375 189.964844 178.261719 190.3125 C 177.914062 190.660156 177.535156 190.96875 177.125 191.242188 C 176.714844 191.519531 176.285156 191.75 175.828125 191.9375 C 175.375 192.125 174.90625 192.269531 174.421875 192.363281 C 173.9375 192.460938 173.449219 192.507812 172.957031 192.507812 C 172.464844 192.507812 171.976562 192.460938 171.496094 192.363281 C 171.011719 192.269531 170.542969 192.125 170.089844 191.9375 C 169.632812 191.75 169.199219 191.519531 168.792969 191.242188 C 168.382812 190.96875 168.003906 190.660156 167.65625 190.3125 C 167.308594 189.964844 166.996094 189.585938 166.722656 189.175781 C 166.449219 188.765625 166.21875 188.332031 166.03125 187.878906 C 165.839844 187.421875 165.699219 186.953125 165.601562 186.472656 C 165.507812 185.988281 165.457031 185.5 165.457031 185.007812 C 165.457031 184.515625 165.507812 184.027344 165.601562 183.542969 C 165.699219 183.0625 165.839844 182.59375 166.03125 182.136719 C 166.21875 181.683594 166.449219 181.25 166.722656 180.839844 C 166.996094 180.433594 167.308594 180.054688 167.65625 179.703125 C 168.003906 179.355469 168.382812 179.046875 168.792969 178.773438 C 169.199219 178.5 169.632812 178.265625 170.089844 178.078125 C 170.542969 177.890625 171.011719 177.75 171.496094 177.652344 C 171.976562 177.554688 172.464844 177.507812 172.957031 177.507812 C 173.449219 177.507812 173.9375 177.554688 174.421875 177.652344 C 174.90625 177.75 175.375 177.890625 175.828125 178.078125 C 176.285156 178.265625 176.714844 178.5 177.125 178.773438 C 177.535156 179.046875 177.914062 179.355469 178.261719 179.703125 C 178.609375 180.054688 178.921875 180.433594 179.195312 180.839844 C 179.46875 181.25 179.699219 181.683594 179.886719 182.136719 C 180.074219 182.59375 180.21875 183.0625 180.3125 183.542969 C 180.410156 184.027344 180.457031 184.515625 180.457031 185.007812 Z M 180.457031 185.007812 " fill-opacity="1" fill-rule="nonzero"/></g><g fill="#ff6100" fill-opacity="1"><g transform="translate(86.471945, 311.850169)"><g><path d="M 4.515625 0 C 3.742188 0 3.226562 -0.128906 2.96875 -0.390625 C 2.707031 -0.648438 2.578125 -1.164062 2.578125 -1.9375 L 2.578125 -43.203125 C 2.578125 -43.972656 2.707031 -44.488281 2.96875 -44.75 C 3.226562 -45.007812 3.742188 -45.140625 4.515625 -45.140625 L 9.03125 -45.140625 C 9.800781 -45.140625 10.359375 -45.007812 10.703125 -44.75 C 11.046875 -44.488281 11.328125 -43.992188 11.546875 -43.265625 L 16.765625 -26.4375 L 17.40625 -26.4375 L 17.40625 -43.203125 C 17.40625 -43.972656 17.535156 -44.488281 17.796875 -44.75 C 18.054688 -45.007812 18.570312 -45.140625 19.34375 -45.140625 L 23.21875 -45.140625 C 23.988281 -45.140625 24.503906 -45.007812 24.765625 -44.75 C 25.023438 -44.488281 25.15625 -43.972656 25.15625 -43.203125 L 25.15625 -1.9375 C 25.15625 -1.164062 25.023438 -0.648438 24.765625 -0.390625 C 24.503906 -0.128906 23.988281 0 23.21875 0 L 18.703125 0 C 17.929688 0 17.375 -0.128906 17.03125 -0.390625 C 16.6875 -0.648438 16.40625 -1.144531 16.1875 -1.875 L 10.96875 -18.703125 L 10.3125 -18.703125 L 10.3125 -1.9375 C 10.3125 -1.164062 10.179688 -0.648438 9.921875 -0.390625 C 9.671875 -0.128906 9.160156 0 8.390625 0 Z M 4.515625 0 "/></g></g></g><g fill="#ff6100" fill-opacity="1"><g transform="translate(114.196858, 311.850169)"><g><path d="M 4.515625 0 C 3.742188 0 3.226562 -0.128906 2.96875 -0.390625 C 2.707031 -0.648438 2.578125 -1.164062 2.578125 -1.9375 L 2.578125 -35.140625 C 2.578125 -36.691406 2.84375 -38.125 3.375 -39.4375 C 3.914062 -40.75 4.671875 -41.875 5.640625 -42.8125 C 6.609375 -43.757812 7.789062 -44.488281 9.1875 -45 C 10.582031 -45.519531 12.140625 -45.78125 13.859375 -45.78125 C 15.578125 -45.78125 17.132812 -45.519531 18.53125 -45 C 19.9375 -44.488281 21.117188 -43.757812 22.078125 -42.8125 C 23.046875 -41.875 23.800781 -40.75 24.34375 -39.4375 C 24.882812 -38.125 25.15625 -36.691406 25.15625 -35.140625 L 25.15625 -1.9375 C 25.15625 -1.164062 25.023438 -0.648438 24.765625 -0.390625 C 24.503906 -0.128906 23.988281 0 23.21875 0 L 17.40625 0 C 16.632812 0 16.117188 -0.128906 15.859375 -0.390625 C 15.597656 -0.648438 15.46875 -1.164062 15.46875 -1.9375 L 15.46875 -14.828125 C 15.46875 -15.347656 15.378906 -15.691406 15.203125 -15.859375 C 15.035156 -16.035156 14.695312 -16.125 14.1875 -16.125 L 11.609375 -16.125 C 11.085938 -16.125 10.738281 -16.035156 10.5625 -15.859375 C 10.394531 -15.691406 10.3125 -15.347656 10.3125 -14.828125 L 10.3125 -1.9375 C 10.3125 -1.164062 10.179688 -0.648438 9.921875 -0.390625 C 9.671875 -0.128906 9.160156 0 8.390625 0 Z M 14.1875 -23.859375 C 14.695312 -23.859375 15.035156 -23.941406 15.203125 -24.109375 C 15.378906 -24.285156 15.46875 -24.632812 15.46875 -25.15625 L 15.46875 -35.46875 C 15.46875 -36.195312 15.222656 -36.804688 14.734375 -37.296875 C 14.242188 -37.796875 13.628906 -38.046875 12.890625 -38.046875 C 12.160156 -38.046875 11.546875 -37.796875 11.046875 -37.296875 C 10.554688 -36.804688 10.3125 -36.195312 10.3125 -35.46875 L 10.3125 -25.15625 C 10.3125 -24.632812 10.394531 -24.285156 10.5625 -24.109375 C 10.738281 -23.941406 11.085938 -23.859375 11.609375 -23.859375 Z M 14.1875 -23.859375 "/></g></g></g><g fill="#ff6100" fill-opacity="1"><g transform="translate(141.921771, 311.850169)"><g/></g></g><g fill="#ff6100" fill-opacity="1"><g transform="translate(153.527544, 311.850169)"><g><path d="M 13.859375 0.640625 C 12.140625 0.640625 10.582031 0.382812 9.1875 -0.125 C 7.789062 -0.644531 6.609375 -1.375 5.640625 -2.3125 C 4.671875 -3.257812 3.914062 -4.390625 3.375 -5.703125 C 2.84375 -7.015625 2.578125 -8.445312 2.578125 -10 L 2.578125 -35.140625 C 2.578125 -36.691406 2.84375 -38.125 3.375 -39.4375 C 3.914062 -40.75 4.671875 -41.875 5.640625 -42.8125 C 6.609375 -43.757812 7.789062 -44.488281 9.1875 -45 C 10.582031 -45.519531 12.140625 -45.78125 13.859375 -45.78125 C 15.578125 -45.78125 17.132812 -45.519531 18.53125 -45 C 19.9375 -44.488281 21.117188 -43.757812 22.078125 -42.8125 C 23.046875 -41.875 23.800781 -40.75 24.34375 -39.4375 C 24.882812 -38.125 25.15625 -36.691406 25.15625 -35.140625 L 25.15625 -31.59375 C 25.15625 -30.820312 25.023438 -30.304688 24.765625 -30.046875 C 24.503906 -29.785156 23.988281 -29.65625 23.21875 -29.65625 L 19.34375 -29.65625 C 18.570312 -29.65625 18.054688 -29.785156 17.796875 -30.046875 C 17.535156 -30.304688 17.40625 -30.820312 17.40625 -31.59375 L 17.40625 -35.46875 C 17.40625 -36.195312 17.15625 -36.804688 16.65625 -37.296875 C 16.164062 -37.796875 15.554688 -38.046875 14.828125 -38.046875 C 14.097656 -38.046875 13.484375 -37.796875 12.984375 -37.296875 C 12.492188 -36.804688 12.25 -36.195312 12.25 -35.46875 L 12.25 -9.671875 C 12.25 -8.941406 12.492188 -8.328125 12.984375 -7.828125 C 13.484375 -7.335938 14.097656 -7.09375 14.828125 -7.09375 C 15.554688 -7.09375 16.164062 -7.335938 16.65625 -7.828125 C 17.15625 -8.328125 17.40625 -8.941406 17.40625 -9.671875 L 17.40625 -13.546875 C 17.40625 -14.316406 17.535156 -14.828125 17.796875 -15.078125 C 18.054688 -15.335938 18.570312 -15.46875 19.34375 -15.46875 L 23.21875 -15.46875 C 23.988281 -15.46875 24.503906 -15.335938 24.765625 -15.078125 C 25.023438 -14.828125 25.15625 -14.316406 25.15625 -13.546875 L 25.15625 -10 C 25.15625 -8.445312 24.882812 -7.015625 24.34375 -5.703125 C 23.800781 -4.390625 23.046875 -3.257812 22.078125 -2.3125 C 21.117188 -1.375 19.9375 -0.644531 18.53125 -0.125 C 17.132812 0.382812 15.578125 0.640625 13.859375 0.640625 Z M 13.859375 0.640625 "/></g></g></g><g fill="#ff6100" fill-opacity="1"><g transform="translate(180.607697, 311.850169)"><g><path d="M 4.515625 0 C 3.742188 0 3.226562 -0.128906 2.96875 -0.390625 C 2.707031 -0.648438 2.578125 -1.164062 2.578125 -1.9375 L 2.578125 -43.203125 C 2.578125 -43.972656 2.707031 -44.488281 2.96875 -44.75 C 3.226562 -45.007812 3.742188 -45.140625 4.515625 -45.140625 L 10.3125 -45.140625 C 11.09375 -45.140625 11.609375 -45.007812 11.859375 -44.75 C 12.117188 -44.488281 12.25 -43.972656 12.25 -43.203125 L 12.25 -28.375 C 12.25 -27.851562 12.332031 -27.503906 12.5 -27.328125 C 12.675781 -27.160156 13.023438 -27.078125 13.546875 -27.078125 L 15.46875 -27.078125 C 15.988281 -27.078125 16.332031 -27.160156 16.5 -27.328125 C 16.675781 -27.503906 16.765625 -27.851562 16.765625 -28.375 L 16.765625 -43.203125 C 16.765625 -43.972656 16.894531 -44.488281 17.15625 -44.75 C 17.414062 -45.007812 17.929688 -45.140625 18.703125 -45.140625 L 24.5 -45.140625 C 25.28125 -45.140625 25.796875 -45.007812 26.046875 -44.75 C 26.304688 -44.488281 26.4375 -43.972656 26.4375 -43.203125 L 26.4375 -1.9375 C 26.4375 -1.164062 26.304688 -0.648438 26.046875 -0.390625 C 25.796875 -0.128906 25.28125 0 24.5 0 L 18.703125 0 C 17.929688 0 17.414062 -0.128906 17.15625 -0.390625 C 16.894531 -0.648438 16.765625 -1.164062 16.765625 -1.9375 L 16.765625 -18.0625 C 16.765625 -18.570312 16.675781 -18.910156 16.5 -19.078125 C 16.332031 -19.253906 15.988281 -19.34375 15.46875 -19.34375 L 13.546875 -19.34375 C 13.023438 -19.34375 12.675781 -19.253906 12.5 -19.078125 C 12.332031 -18.910156 12.25 -18.570312 12.25 -18.0625 L 12.25 -1.9375 C 12.25 -1.164062 12.117188 -0.648438 11.859375 -0.390625 C 11.609375 -0.128906 11.09375 0 10.3125 0 Z M 4.515625 0 "/></g></g></g><g fill="#ff6100" fill-opacity="1"><g transform="translate(209.622141, 311.850169)"><g><path d="M 4.515625 0 C 3.742188 0 3.226562 -0.128906 2.96875 -0.390625 C 2.707031 -0.648438 2.578125 -1.164062 2.578125 -1.9375 L 2.578125 -35.140625 C 2.578125 -36.691406 2.84375 -38.125 3.375 -39.4375 C 3.914062 -40.75 4.671875 -41.875 5.640625 -42.8125 C 6.609375 -43.757812 7.789062 -44.488281 9.1875 -45 C 10.582031 -45.519531 12.140625 -45.78125 13.859375 -45.78125 C 15.578125 -45.78125 17.132812 -45.519531 18.53125 -45 C 19.9375 -44.488281 21.117188 -43.757812 22.078125 -42.8125 C 23.046875 -41.875 23.800781 -40.75 24.34375 -39.4375 C 24.882812 -38.125 25.15625 -36.691406 25.15625 -35.140625 L 25.15625 -1.9375 C 25.15625 -1.164062 25.023438 -0.648438 24.765625 -0.390625 C 24.503906 -0.128906 23.988281 0 23.21875 0 L 17.40625 0 C 16.632812 0 16.117188 -0.128906 15.859375 -0.390625 C 15.597656 -0.648438 15.46875 -1.164062 15.46875 -1.9375 L 15.46875 -14.828125 C 15.46875 -15.347656 15.378906 -15.691406 15.203125 -15.859375 C 15.035156 -16.035156 14.695312 -16.125 14.1875 -16.125 L 11.609375 -16.125 C 11.085938 -16.125 10.738281 -16.035156 10.5625 -15.859375 C 10.394531 -15.691406 10.3125 -15.347656 10.3125 -14.828125 L 10.3125 -1.9375 C 10.3125 -1.164062 10.179688 -0.648438 9.921875 -0.390625 C 9.671875 -0.128906 9.160156 0 8.390625 0 Z M 14.1875 -23.859375 C 14.695312 -23.859375 15.035156 -23.941406 15.203125 -24.109375 C 15.378906 -24.285156 15.46875 -24.632812 15.46875 -25.15625 L 15.46875 -35.46875 C 15.46875 -36.195312 15.222656 -36.804688 14.734375 -37.296875 C 14.242188 -37.796875 13.628906 -38.046875 12.890625 -38.046875 C 12.160156 -38.046875 11.546875 -37.796875 11.046875 -37.296875 C 10.554688 -36.804688 10.3125 -36.195312 10.3125 -35.46875 L 10.3125 -25.15625 C 10.3125 -24.632812 10.394531 -24.285156 10.5625 -24.109375 C 10.738281 -23.941406 11.085938 -23.859375 11.609375 -23.859375 Z M 14.1875 -23.859375 "/></g></g></g><g fill="#ff6100" fill-opacity="1"><g transform="translate(237.347054, 311.850169)"><g><path d="M 4.515625 0 C 3.742188 0 3.226562 -0.128906 2.96875 -0.390625 C 2.707031 -0.648438 2.578125 -1.164062 2.578125 -1.9375 L 2.578125 -43.203125 C 2.578125 -43.972656 2.707031 -44.488281 2.96875 -44.75 C 3.226562 -45.007812 3.742188 -45.140625 4.515625 -45.140625 L 13.859375 -45.140625 C 17.597656 -45.140625 20.519531 -44.109375 22.625 -42.046875 C 24.738281 -39.984375 25.796875 -37.253906 25.796875 -33.859375 L 25.796875 -22.890625 C 25.796875 -19.492188 24.738281 -16.765625 22.625 -14.703125 C 20.519531 -12.640625 17.597656 -11.609375 13.859375 -11.609375 L 12.25 -11.609375 L 12.25 -1.9375 C 12.25 -1.164062 12.117188 -0.648438 11.859375 -0.390625 C 11.609375 -0.128906 11.09375 0 10.3125 0 Z M 13.859375 -19.34375 C 14.503906 -19.34375 15.039062 -19.554688 15.46875 -19.984375 C 15.90625 -20.421875 16.125 -20.960938 16.125 -21.609375 L 16.125 -35.140625 C 16.125 -35.785156 15.90625 -36.320312 15.46875 -36.75 C 15.039062 -37.1875 14.503906 -37.40625 13.859375 -37.40625 L 13.21875 -37.40625 C 12.832031 -37.40625 12.570312 -37.335938 12.4375 -37.203125 C 12.3125 -37.078125 12.25 -36.820312 12.25 -36.4375 L 12.25 -20.3125 C 12.25 -19.925781 12.3125 -19.664062 12.4375 -19.53125 C 12.570312 -19.40625 12.832031 -19.34375 13.21875 -19.34375 Z M 13.859375 -19.34375 "/></g></g></g><g fill="#ff6100" fill-opacity="1"><g transform="translate(265.071967, 311.850169)"><g><path d="M 4.515625 0 C 3.742188 0 3.226562 -0.128906 2.96875 -0.390625 C 2.707031 -0.648438 2.578125 -1.164062 2.578125 -1.9375 L 2.578125 -35.140625 C 2.578125 -36.691406 2.84375 -38.125 3.375 -39.4375 C 3.914062 -40.75 4.671875 -41.875 5.640625 -42.8125 C 6.609375 -43.757812 7.789062 -44.488281 9.1875 -45 C 10.582031 -45.519531 12.140625 -45.78125 13.859375 -45.78125 C 15.578125 -45.78125 17.132812 -45.519531 18.53125 -45 C 19.9375 -44.488281 21.117188 -43.757812 22.078125 -42.8125 C 23.046875 -41.875 23.800781 -40.75 24.34375 -39.4375 C 24.882812 -38.125 25.15625 -36.691406 25.15625 -35.140625 L 25.15625 -1.9375 C 25.15625 -1.164062 25.023438 -0.648438 24.765625 -0.390625 C 24.503906 -0.128906 23.988281 0 23.21875 0 L 17.40625 0 C 16.632812 0 16.117188 -0.128906 15.859375 -0.390625 C 15.597656 -0.648438 15.46875 -1.164062 15.46875 -1.9375 L 15.46875 -14.828125 C 15.46875 -15.347656 15.378906 -15.691406 15.203125 -15.859375 C 15.035156 -16.035156 14.695312 -16.125 14.1875 -16.125 L 11.609375 -16.125 C 11.085938 -16.125 10.738281 -16.035156 10.5625 -15.859375 C 10.394531 -15.691406 10.3125 -15.347656 10.3125 -14.828125 L 10.3125 -1.9375 C 10.3125 -1.164062 10.179688 -0.648438 9.921875 -0.390625 C 9.671875 -0.128906 9.160156 0 8.390625 0 Z M 14.1875 -23.859375 C 14.695312 -23.859375 15.035156 -23.941406 15.203125 -24.109375 C 15.378906 -24.285156 15.46875 -24.632812 15.46875 -25.15625 L 15.46875 -35.46875 C 15.46875 -36.195312 15.222656 -36.804688 14.734375 -37.296875 C 14.242188 -37.796875 13.628906 -38.046875 12.890625 -38.046875 C 12.160156 -38.046875 11.546875 -37.796875 11.046875 -37.296875 C 10.554688 -36.804688 10.3125 -36.195312 10.3125 -35.46875 L 10.3125 -25.15625 C 10.3125 -24.632812 10.394531 -24.285156 10.5625 -24.109375 C 10.738281 -23.941406 11.085938 -23.859375 11.609375 -23.859375 Z M 14.1875 -23.859375 "/></g></g></g><g clip-path="url(#64a4a33475)"><path fill="#ff6100" d="M 220.613281 182.96875 C 220.613281 183.535156 220.558594 184.097656 220.449219 184.652344 C 220.339844 185.207031 220.175781 185.746094 219.957031 186.269531 C 219.742188 186.792969 219.476562 187.289062 219.160156 187.761719 C 218.847656 188.234375 218.488281 188.667969 218.089844 189.070312 C 217.6875 189.46875 217.253906 189.828125 216.78125 190.140625 C 216.308594 190.457031 215.8125 190.722656 215.289062 190.9375 C 214.765625 191.15625 214.226562 191.320312 213.671875 191.429688 C 213.117188 191.539062 212.554688 191.59375 211.988281 191.59375 C 211.421875 191.59375 210.863281 191.539062 210.308594 191.429688 C 209.75 191.320312 209.210938 191.15625 208.6875 190.9375 C 208.164062 190.722656 207.667969 190.457031 207.199219 190.140625 C 206.726562 189.828125 206.292969 189.46875 205.890625 189.070312 C 205.492188 188.667969 205.132812 188.234375 204.816406 187.761719 C 204.503906 187.289062 204.238281 186.792969 204.019531 186.269531 C 203.804688 185.746094 203.640625 185.207031 203.53125 184.652344 C 203.417969 184.097656 203.363281 183.535156 203.363281 182.96875 C 203.363281 182.402344 203.417969 181.84375 203.53125 181.289062 C 203.640625 180.730469 203.804688 180.191406 204.019531 179.667969 C 204.238281 179.144531 204.503906 178.648438 204.816406 178.179688 C 205.132812 177.707031 205.492188 177.273438 205.890625 176.871094 C 206.292969 176.46875 206.726562 176.113281 207.199219 175.796875 C 207.667969 175.484375 208.164062 175.21875 208.6875 175 C 209.210938 174.785156 209.75 174.621094 210.308594 174.511719 C 210.863281 174.398438 211.421875 174.34375 211.988281 174.34375 C 212.554688 174.34375 213.117188 174.398438 213.671875 174.511719 C 214.226562 174.621094 214.765625 174.785156 215.289062 175 C 215.8125 175.21875 216.308594 175.484375 216.78125 175.796875 C 217.253906 176.113281 217.6875 176.46875 218.089844 176.871094 C 218.488281 177.273438 218.847656 177.707031 219.160156 178.179688 C 219.476562 178.648438 219.742188 179.144531 219.957031 179.667969 C 220.175781 180.191406 220.339844 180.730469 220.449219 181.289062 C 220.558594 181.84375 220.613281 182.402344 220.613281 182.96875 Z M 220.613281 182.96875 " fill-opacity="1" fill-rule="nonzero"/></g><g fill="#000000" fill-opacity="1"><g transform="translate(108.065498, 354.513375)"><g><path d="M 2.125 0 C 1.757812 0 1.515625 -0.0546875 1.390625 -0.171875 C 1.273438 -0.296875 1.21875 -0.539062 1.21875 -0.90625 L 1.21875 -20.390625 C 1.21875 -20.753906 1.273438 -21 1.390625 -21.125 C 1.515625 -21.25 1.757812 -21.3125 2.125 -21.3125 L 4.875 -21.3125 C 5.238281 -21.3125 5.476562 -21.25 5.59375 -21.125 C 5.71875 -21 5.78125 -20.753906 5.78125 -20.390625 L 5.78125 -13.390625 C 5.78125 -13.148438 5.820312 -12.988281 5.90625 -12.90625 C 5.988281 -12.820312 6.148438 -12.78125 6.390625 -12.78125 L 7.3125 -12.78125 C 7.550781 -12.78125 7.707031 -12.820312 7.78125 -12.90625 C 7.863281 -12.988281 7.90625 -13.148438 7.90625 -13.390625 L 7.90625 -20.390625 C 7.90625 -20.753906 7.96875 -21 8.09375 -21.125 C 8.21875 -21.25 8.460938 -21.3125 8.828125 -21.3125 L 11.5625 -21.3125 C 11.925781 -21.3125 12.171875 -21.25 12.296875 -21.125 C 12.421875 -21 12.484375 -20.753906 12.484375 -20.390625 L 12.484375 -0.90625 C 12.484375 -0.539062 12.421875 -0.296875 12.296875 -0.171875 C 12.171875 -0.0546875 11.925781 0 11.5625 0 L 8.828125 0 C 8.460938 0 8.21875 -0.0546875 8.09375 -0.171875 C 7.96875 -0.296875 7.90625 -0.539062 7.90625 -0.90625 L 7.90625 -8.515625 C 7.90625 -8.765625 7.863281 -8.925781 7.78125 -9 C 7.707031 -9.082031 7.550781 -9.125 7.3125 -9.125 L 6.390625 -9.125 C 6.148438 -9.125 5.988281 -9.082031 5.90625 -9 C 5.820312 -8.925781 5.78125 -8.765625 5.78125 -8.515625 L 5.78125 -0.90625 C 5.78125 -0.539062 5.71875 -0.296875 5.59375 -0.171875 C 5.476562 -0.0546875 5.238281 0 4.875 0 Z M 2.125 0 "/></g></g></g><g fill="#000000" fill-opacity="1"><g transform="translate(121.760619, 354.513375)"><g><path d="M 2.125 0 C 1.757812 0 1.515625 -0.0546875 1.390625 -0.171875 C 1.273438 -0.296875 1.21875 -0.539062 1.21875 -0.90625 L 1.21875 -16.59375 C 1.21875 -17.320312 1.34375 -17.992188 1.59375 -18.609375 C 1.851562 -19.234375 2.207031 -19.765625 2.65625 -20.203125 C 3.113281 -20.648438 3.671875 -20.992188 4.328125 -21.234375 C 4.992188 -21.484375 5.734375 -21.609375 6.546875 -21.609375 C 7.359375 -21.609375 8.09375 -21.484375 8.75 -21.234375 C 9.40625 -20.992188 9.960938 -20.648438 10.421875 -20.203125 C 10.878906 -19.765625 11.234375 -19.234375 11.484375 -18.609375 C 11.742188 -17.992188 11.875 -17.320312 11.875 -16.59375 L 11.875 -0.90625 C 11.875 -0.539062 11.8125 -0.296875 11.6875 -0.171875 C 11.5625 -0.0546875 11.316406 0 10.953125 0 L 8.21875 0 C 7.851562 0 7.609375 -0.0546875 7.484375 -0.171875 C 7.367188 -0.296875 7.3125 -0.539062 7.3125 -0.90625 L 7.3125 -7 C 7.3125 -7.238281 7.269531 -7.398438 7.1875 -7.484375 C 7.101562 -7.566406 6.941406 -7.609375 6.703125 -7.609375 L 5.484375 -7.609375 C 5.234375 -7.609375 5.066406 -7.566406 4.984375 -7.484375 C 4.910156 -7.398438 4.875 -7.238281 4.875 -7 L 4.875 -0.90625 C 4.875 -0.539062 4.8125 -0.296875 4.6875 -0.171875 C 4.5625 -0.0546875 4.316406 0 3.953125 0 Z M 6.703125 -11.265625 C 6.941406 -11.265625 7.101562 -11.300781 7.1875 -11.375 C 7.269531 -11.457031 7.3125 -11.625 7.3125 -11.875 L 7.3125 -16.734375 C 7.3125 -17.085938 7.191406 -17.378906 6.953125 -17.609375 C 6.722656 -17.835938 6.4375 -17.953125 6.09375 -17.953125 C 5.738281 -17.953125 5.445312 -17.835938 5.21875 -17.609375 C 4.988281 -17.378906 4.875 -17.085938 4.875 -16.734375 L 4.875 -11.875 C 4.875 -11.625 4.910156 -11.457031 4.984375 -11.375 C 5.066406 -11.300781 5.234375 -11.265625 5.484375 -11.265625 Z M 6.703125 -11.265625 "/></g></g></g><g fill="#000000" fill-opacity="1"><g transform="translate(134.847063, 354.513375)"><g><path d="M 2.125 0 C 1.757812 0 1.515625 -0.0546875 1.390625 -0.171875 C 1.273438 -0.296875 1.21875 -0.539062 1.21875 -0.90625 L 1.21875 -20.390625 C 1.21875 -20.753906 1.273438 -21 1.390625 -21.125 C 1.515625 -21.25 1.757812 -21.3125 2.125 -21.3125 L 5.546875 -21.3125 C 5.910156 -21.3125 6.175781 -21.253906 6.34375 -21.140625 C 6.519531 -21.023438 6.65625 -20.796875 6.75 -20.453125 L 8.671875 -11.40625 L 8.984375 -11.40625 L 10.921875 -20.453125 C 11.023438 -20.796875 11.160156 -21.023438 11.328125 -21.140625 C 11.503906 -21.253906 11.773438 -21.3125 12.140625 -21.3125 L 15.515625 -21.3125 C 15.890625 -21.3125 16.132812 -21.25 16.25 -21.125 C 16.375 -21 16.4375 -20.753906 16.4375 -20.390625 L 16.4375 -0.90625 C 16.4375 -0.539062 16.375 -0.296875 16.25 -0.171875 C 16.132812 -0.0546875 15.890625 0 15.515625 0 L 12.78125 0 C 12.414062 0 12.171875 -0.0546875 12.046875 -0.171875 C 11.929688 -0.296875 11.875 -0.539062 11.875 -0.90625 L 11.875 -9.890625 L 11.5625 -9.890625 L 9.671875 -0.859375 C 9.578125 -0.503906 9.441406 -0.269531 9.265625 -0.15625 C 9.097656 -0.0507812 8.832031 0 8.46875 0 L 8.28125 0 C 7.914062 0 7.644531 -0.0507812 7.46875 -0.15625 C 7.300781 -0.269531 7.164062 -0.503906 7.0625 -0.859375 L 5.171875 -9.890625 L 4.875 -9.890625 L 4.875 -0.90625 C 4.875 -0.539062 4.8125 -0.296875 4.6875 -0.171875 C 4.5625 -0.0546875 4.316406 0 3.953125 0 Z M 2.125 0 "/></g></g></g><g fill="#000000" fill-opacity="1"><g transform="translate(152.498543, 354.513375)"><g><path d="M 2.125 0 C 1.757812 0 1.515625 -0.0546875 1.390625 -0.171875 C 1.273438 -0.296875 1.21875 -0.539062 1.21875 -0.90625 L 1.21875 -20.390625 C 1.21875 -20.753906 1.273438 -21 1.390625 -21.125 C 1.515625 -21.25 1.757812 -21.3125 2.125 -21.3125 L 6.875 -21.3125 C 8.457031 -21.3125 9.6875 -20.890625 10.5625 -20.046875 C 11.4375 -19.203125 11.875 -18.050781 11.875 -16.59375 L 11.875 -15.375 C 11.875 -14.644531 11.773438 -14.054688 11.578125 -13.609375 C 11.390625 -13.160156 11.179688 -12.804688 10.953125 -12.546875 C 10.691406 -12.234375 10.390625 -12.007812 10.046875 -11.875 L 10.046875 -11.5625 C 10.492188 -11.425781 10.898438 -11.203125 11.265625 -10.890625 C 11.566406 -10.628906 11.84375 -10.269531 12.09375 -9.8125 C 12.351562 -9.351562 12.484375 -8.769531 12.484375 -8.0625 L 12.484375 -5.328125 C 12.484375 -3.722656 11.984375 -2.429688 10.984375 -1.453125 C 9.992188 -0.484375 8.613281 0 6.84375 0 Z M 6.84375 -3.65625 C 7.15625 -3.65625 7.410156 -3.753906 7.609375 -3.953125 C 7.804688 -4.160156 7.90625 -4.414062 7.90625 -4.71875 L 7.90625 -8.375 C 7.90625 -8.675781 7.804688 -8.925781 7.609375 -9.125 C 7.410156 -9.332031 7.15625 -9.4375 6.84375 -9.4375 L 6.234375 -9.4375 C 6.054688 -9.4375 5.9375 -9.40625 5.875 -9.34375 C 5.8125 -9.28125 5.78125 -9.160156 5.78125 -8.984375 L 5.78125 -4.109375 C 5.78125 -3.921875 5.8125 -3.796875 5.875 -3.734375 C 5.9375 -3.679688 6.054688 -3.65625 6.234375 -3.65625 Z M 6.546875 -13.09375 C 7.054688 -13.09375 7.3125 -13.34375 7.3125 -13.84375 L 7.3125 -16.890625 C 7.3125 -17.398438 7.054688 -17.65625 6.546875 -17.65625 L 6.234375 -17.65625 C 6.054688 -17.65625 5.9375 -17.625 5.875 -17.5625 C 5.8125 -17.5 5.78125 -17.378906 5.78125 -17.203125 L 5.78125 -13.546875 C 5.78125 -13.359375 5.8125 -13.234375 5.875 -13.171875 C 5.9375 -13.117188 6.054688 -13.09375 6.234375 -13.09375 Z M 6.546875 -13.09375 "/></g></g></g><g fill="#000000" fill-opacity="1"><g transform="translate(165.737159, 354.513375)"><g><path d="M 6.546875 0.296875 C 5.734375 0.296875 4.992188 0.175781 4.328125 -0.0625 C 3.671875 -0.300781 3.113281 -0.644531 2.65625 -1.09375 C 2.207031 -1.539062 1.851562 -2.070312 1.59375 -2.6875 C 1.34375 -3.3125 1.21875 -3.988281 1.21875 -4.71875 L 1.21875 -20.390625 C 1.21875 -20.753906 1.273438 -21 1.390625 -21.125 C 1.515625 -21.25 1.757812 -21.3125 2.125 -21.3125 L 4.875 -21.3125 C 5.238281 -21.3125 5.476562 -21.25 5.59375 -21.125 C 5.71875 -21 5.78125 -20.753906 5.78125 -20.390625 L 5.78125 -4.5625 C 5.78125 -4.21875 5.894531 -3.925781 6.125 -3.6875 C 6.363281 -3.457031 6.65625 -3.34375 7 -3.34375 C 7.34375 -3.34375 7.628906 -3.457031 7.859375 -3.6875 C 8.097656 -3.925781 8.21875 -4.21875 8.21875 -4.5625 L 8.21875 -20.390625 C 8.21875 -20.753906 8.273438 -21 8.390625 -21.125 C 8.515625 -21.25 8.757812 -21.3125 9.125 -21.3125 L 10.953125 -21.3125 C 11.316406 -21.3125 11.5625 -21.25 11.6875 -21.125 C 11.8125 -21 11.875 -20.753906 11.875 -20.390625 L 11.875 -4.71875 C 11.875 -3.988281 11.742188 -3.3125 11.484375 -2.6875 C 11.234375 -2.070312 10.878906 -1.539062 10.421875 -1.09375 C 9.960938 -0.644531 9.40625 -0.300781 8.75 -0.0625 C 8.09375 0.175781 7.359375 0.296875 6.546875 0.296875 Z M 6.546875 0.296875 "/></g></g></g><g fill="#000000" fill-opacity="1"><g transform="translate(178.823603, 354.513375)"><g><path d="M 10.953125 0.15625 C 9.640625 0.15625 8.703125 -0.117188 8.140625 -0.671875 C 7.585938 -1.234375 7.3125 -2.175781 7.3125 -3.5 L 7.3125 -7.3125 C 7.3125 -7.613281 7.257812 -7.863281 7.15625 -8.0625 C 7.050781 -8.269531 6.847656 -8.375 6.546875 -8.375 L 6.234375 -8.375 C 6.054688 -8.375 5.9375 -8.34375 5.875 -8.28125 C 5.8125 -8.21875 5.78125 -8.09375 5.78125 -7.90625 L 5.78125 -0.90625 C 5.78125 -0.539062 5.71875 -0.296875 5.59375 -0.171875 C 5.476562 -0.0546875 5.238281 0 4.875 0 L 2.125 0 C 1.757812 0 1.515625 -0.0546875 1.390625 -0.171875 C 1.273438 -0.296875 1.21875 -0.539062 1.21875 -0.90625 L 1.21875 -20.390625 C 1.21875 -20.753906 1.273438 -21 1.390625 -21.125 C 1.515625 -21.25 1.757812 -21.3125 2.125 -21.3125 L 6.546875 -21.3125 C 8.304688 -21.3125 9.679688 -20.820312 10.671875 -19.84375 C 11.671875 -18.875 12.171875 -17.585938 12.171875 -15.984375 L 12.171875 -13.703125 C 12.171875 -12.984375 12.054688 -12.410156 11.828125 -11.984375 C 11.609375 -11.566406 11.367188 -11.234375 11.109375 -10.984375 C 10.785156 -10.703125 10.429688 -10.488281 10.046875 -10.34375 L 10.046875 -10.046875 C 10.390625 -9.898438 10.691406 -9.6875 10.953125 -9.40625 C 11.179688 -9.164062 11.390625 -8.828125 11.578125 -8.390625 C 11.773438 -7.953125 11.875 -7.390625 11.875 -6.703125 L 11.875 -4.265625 C 11.875 -3.921875 11.929688 -3.710938 12.046875 -3.640625 C 12.171875 -3.566406 12.304688 -3.515625 12.453125 -3.484375 C 12.609375 -3.453125 12.753906 -3.398438 12.890625 -3.328125 C 13.023438 -3.253906 13.09375 -3.054688 13.09375 -2.734375 L 13.09375 -0.609375 C 13.09375 -0.304688 13.039062 -0.101562 12.9375 0 C 12.832031 0.101562 12.628906 0.15625 12.328125 0.15625 Z M 6.546875 -12.015625 C 6.847656 -12.015625 7.097656 -12.113281 7.296875 -12.3125 C 7.503906 -12.519531 7.609375 -12.78125 7.609375 -13.09375 L 7.609375 -16.59375 C 7.609375 -16.894531 7.503906 -17.144531 7.296875 -17.34375 C 7.097656 -17.550781 6.847656 -17.65625 6.546875 -17.65625 L 6.234375 -17.65625 C 6.054688 -17.65625 5.9375 -17.625 5.875 -17.5625 C 5.8125 -17.5 5.78125 -17.378906 5.78125 -17.203125 L 5.78125 -12.484375 C 5.78125 -12.296875 5.8125 -12.171875 5.875 -12.109375 C 5.9375 -12.046875 6.054688 -12.015625 6.234375 -12.015625 Z M 6.546875 -12.015625 "/></g></g></g><g fill="#000000" fill-opacity="1"><g transform="translate(192.21438, 354.513375)"><g><path d="M 6.546875 0.296875 C 5.734375 0.296875 4.992188 0.175781 4.328125 -0.0625 C 3.671875 -0.300781 3.113281 -0.644531 2.65625 -1.09375 C 2.207031 -1.539062 1.851562 -2.070312 1.59375 -2.6875 C 1.34375 -3.3125 1.21875 -3.988281 1.21875 -4.71875 L 1.21875 -16.59375 C 1.21875 -17.320312 1.34375 -17.992188 1.59375 -18.609375 C 1.851562 -19.234375 2.207031 -19.765625 2.65625 -20.203125 C 3.113281 -20.648438 3.671875 -20.992188 4.328125 -21.234375 C 4.992188 -21.484375 5.734375 -21.609375 6.546875 -21.609375 C 7.359375 -21.609375 8.09375 -21.484375 8.75 -21.234375 C 9.40625 -20.992188 9.960938 -20.648438 10.421875 -20.203125 C 10.878906 -19.765625 11.234375 -19.234375 11.484375 -18.609375 C 11.742188 -17.992188 11.875 -17.320312 11.875 -16.59375 L 11.875 -14.921875 C 11.875 -14.546875 11.8125 -14.296875 11.6875 -14.171875 C 11.5625 -14.054688 11.316406 -14 10.953125 -14 L 9.125 -14 C 8.757812 -14 8.515625 -14.054688 8.390625 -14.171875 C 8.273438 -14.296875 8.21875 -14.546875 8.21875 -14.921875 L 8.21875 -16.734375 C 8.21875 -17.085938 8.097656 -17.378906 7.859375 -17.609375 C 7.628906 -17.835938 7.34375 -17.953125 7 -17.953125 C 6.65625 -17.953125 6.363281 -17.835938 6.125 -17.609375 C 5.894531 -17.378906 5.78125 -17.085938 5.78125 -16.734375 L 5.78125 -4.5625 C 5.78125 -4.21875 5.894531 -3.925781 6.125 -3.6875 C 6.363281 -3.457031 6.65625 -3.34375 7 -3.34375 C 7.34375 -3.34375 7.628906 -3.457031 7.859375 -3.6875 C 8.097656 -3.925781 8.21875 -4.21875 8.21875 -4.5625 L 8.21875 -7 C 8.21875 -7.238281 8.175781 -7.398438 8.09375 -7.484375 C 8.007812 -7.566406 7.847656 -7.609375 7.609375 -7.609375 L 7.3125 -7.609375 C 6.9375 -7.609375 6.6875 -7.664062 6.5625 -7.78125 C 6.445312 -7.90625 6.390625 -8.148438 6.390625 -8.515625 L 6.390625 -10.34375 C 6.390625 -10.707031 6.445312 -10.953125 6.5625 -11.078125 C 6.6875 -11.203125 6.9375 -11.265625 7.3125 -11.265625 L 10.953125 -11.265625 C 11.316406 -11.265625 11.5625 -11.203125 11.6875 -11.078125 C 11.8125 -10.953125 11.875 -10.707031 11.875 -10.34375 L 11.875 -4.71875 C 11.875 -3.988281 11.742188 -3.3125 11.484375 -2.6875 C 11.234375 -2.070312 10.878906 -1.539062 10.421875 -1.09375 C 9.960938 -0.644531 9.40625 -0.300781 8.75 -0.0625 C 8.09375 0.175781 7.359375 0.296875 6.546875 0.296875 Z M 6.546875 0.296875 "/></g></g></g><g fill="#000000" fill-opacity="1"><g transform="translate(205.148652, 354.513375)"><g><path d="M 6.546875 0.296875 C 5.734375 0.296875 4.992188 0.175781 4.328125 -0.0625 C 3.671875 -0.300781 3.113281 -0.644531 2.65625 -1.09375 C 2.207031 -1.539062 1.851562 -2.070312 1.59375 -2.6875 C 1.34375 -3.3125 1.21875 -3.988281 1.21875 -4.71875 L 1.21875 -20.390625 C 1.21875 -20.753906 1.273438 -21 1.390625 -21.125 C 1.515625 -21.25 1.757812 -21.3125 2.125 -21.3125 L 4.875 -21.3125 C 5.238281 -21.3125 5.476562 -21.25 5.59375 -21.125 C 5.71875 -21 5.78125 -20.753906 5.78125 -20.390625 L 5.78125 -4.5625 C 5.78125 -4.21875 5.894531 -3.925781 6.125 -3.6875 C 6.363281 -3.457031 6.65625 -3.34375 7 -3.34375 C 7.34375 -3.34375 7.628906 -3.457031 7.859375 -3.6875 C 8.097656 -3.925781 8.21875 -4.21875 8.21875 -4.5625 L 8.21875 -20.390625 C 8.21875 -20.753906 8.273438 -21 8.390625 -21.125 C 8.515625 -21.25 8.757812 -21.3125 9.125 -21.3125 L 10.953125 -21.3125 C 11.316406 -21.3125 11.5625 -21.25 11.6875 -21.125 C 11.8125 -21 11.875 -20.753906 11.875 -20.390625 L 11.875 -4.71875 C 11.875 -3.988281 11.742188 -3.3125 11.484375 -2.6875 C 11.234375 -2.070312 10.878906 -1.539062 10.421875 -1.09375 C 9.960938 -0.644531 9.40625 -0.300781 8.75 -0.0625 C 8.09375 0.175781 7.359375 0.296875 6.546875 0.296875 Z M 6.546875 0.296875 "/></g></g></g><g fill="#000000" fill-opacity="1"><g transform="translate(218.235095, 354.513375)"><g><path d="M 2.125 0 C 1.757812 0 1.515625 -0.0546875 1.390625 -0.171875 C 1.273438 -0.296875 1.21875 -0.539062 1.21875 -0.90625 L 1.21875 -20.390625 C 1.21875 -20.753906 1.273438 -21 1.390625 -21.125 C 1.515625 -21.25 1.757812 -21.3125 2.125 -21.3125 L 10.046875 -21.3125 C 10.410156 -21.3125 10.648438 -21.25 10.765625 -21.125 C 10.890625 -21 10.953125 -20.753906 10.953125 -20.390625 L 10.953125 -18.5625 C 10.953125 -18.195312 10.890625 -17.953125 10.765625 -17.828125 C 10.648438 -17.710938 10.410156 -17.65625 10.046875 -17.65625 L 6.390625 -17.65625 C 6.148438 -17.65625 5.988281 -17.613281 5.90625 -17.53125 C 5.820312 -17.445312 5.78125 -17.285156 5.78125 -17.046875 L 5.78125 -13.390625 C 5.78125 -13.148438 5.820312 -12.988281 5.90625 -12.90625 C 5.988281 -12.820312 6.148438 -12.78125 6.390625 -12.78125 L 8.515625 -12.78125 C 8.890625 -12.78125 9.132812 -12.71875 9.25 -12.59375 C 9.375 -12.476562 9.4375 -12.238281 9.4375 -11.875 L 9.4375 -10.046875 C 9.4375 -9.679688 9.375 -9.4375 9.25 -9.3125 C 9.132812 -9.1875 8.890625 -9.125 8.515625 -9.125 L 6.390625 -9.125 C 6.148438 -9.125 5.988281 -9.082031 5.90625 -9 C 5.820312 -8.925781 5.78125 -8.765625 5.78125 -8.515625 L 5.78125 -4.265625 C 5.78125 -4.015625 5.820312 -3.847656 5.90625 -3.765625 C 5.988281 -3.691406 6.148438 -3.65625 6.390625 -3.65625 L 10.046875 -3.65625 C 10.410156 -3.65625 10.648438 -3.59375 10.765625 -3.46875 C 10.890625 -3.34375 10.953125 -3.097656 10.953125 -2.734375 L 10.953125 -0.90625 C 10.953125 -0.539062 10.890625 -0.296875 10.765625 -0.171875 C 10.648438 -0.0546875 10.410156 0 10.046875 0 Z M 2.125 0 "/></g></g></g><g fill="#000000" fill-opacity="1"><g transform="translate(229.799864, 354.513375)"><g><path d="M 10.953125 0.15625 C 9.640625 0.15625 8.703125 -0.117188 8.140625 -0.671875 C 7.585938 -1.234375 7.3125 -2.175781 7.3125 -3.5 L 7.3125 -7.3125 C 7.3125 -7.613281 7.257812 -7.863281 7.15625 -8.0625 C 7.050781 -8.269531 6.847656 -8.375 6.546875 -8.375 L 6.234375 -8.375 C 6.054688 -8.375 5.9375 -8.34375 5.875 -8.28125 C 5.8125 -8.21875 5.78125 -8.09375 5.78125 -7.90625 L 5.78125 -0.90625 C 5.78125 -0.539062 5.71875 -0.296875 5.59375 -0.171875 C 5.476562 -0.0546875 5.238281 0 4.875 0 L 2.125 0 C 1.757812 0 1.515625 -0.0546875 1.390625 -0.171875 C 1.273438 -0.296875 1.21875 -0.539062 1.21875 -0.90625 L 1.21875 -20.390625 C 1.21875 -20.753906 1.273438 -21 1.390625 -21.125 C 1.515625 -21.25 1.757812 -21.3125 2.125 -21.3125 L 6.546875 -21.3125 C 8.304688 -21.3125 9.679688 -20.820312 10.671875 -19.84375 C 11.671875 -18.875 12.171875 -17.585938 12.171875 -15.984375 L 12.171875 -13.703125 C 12.171875 -12.984375 12.054688 -12.410156 11.828125 -11.984375 C 11.609375 -11.566406 11.367188 -11.234375 11.109375 -10.984375 C 10.785156 -10.703125 10.429688 -10.488281 10.046875 -10.34375 L 10.046875 -10.046875 C 10.390625 -9.898438 10.691406 -9.6875 10.953125 -9.40625 C 11.179688 -9.164062 11.390625 -8.828125 11.578125 -8.390625 C 11.773438 -7.953125 11.875 -7.390625 11.875 -6.703125 L 11.875 -4.265625 C 11.875 -3.921875 11.929688 -3.710938 12.046875 -3.640625 C 12.171875 -3.566406 12.304688 -3.515625 12.453125 -3.484375 C 12.609375 -3.453125 12.753906 -3.398438 12.890625 -3.328125 C 13.023438 -3.253906 13.09375 -3.054688 13.09375 -2.734375 L 13.09375 -0.609375 C 13.09375 -0.304688 13.039062 -0.101562 12.9375 0 C 12.832031 0.101562 12.628906 0.15625 12.328125 0.15625 Z M 6.546875 -12.015625 C 6.847656 -12.015625 7.097656 -12.113281 7.296875 -12.3125 C 7.503906 -12.519531 7.609375 -12.78125 7.609375 -13.09375 L 7.609375 -16.59375 C 7.609375 -16.894531 7.503906 -17.144531 7.296875 -17.34375 C 7.097656 -17.550781 6.847656 -17.65625 6.546875 -17.65625 L 6.234375 -17.65625 C 6.054688 -17.65625 5.9375 -17.625 5.875 -17.5625 C 5.8125 -17.5 5.78125 -17.378906 5.78125 -17.203125 L 5.78125 -12.484375 C 5.78125 -12.296875 5.8125 -12.171875 5.875 -12.109375 C 5.9375 -12.046875 6.054688 -12.015625 6.234375 -12.015625 Z M 6.546875 -12.015625 "/></g></g></g><g fill="#000000" fill-opacity="1"><g transform="translate(243.190641, 354.513375)"><g><path d="M 1.515625 0 C 1.148438 0 0.90625 -0.0546875 0.78125 -0.171875 C 0.664062 -0.296875 0.609375 -0.539062 0.609375 -0.90625 L 0.609375 -2.734375 C 0.609375 -3.097656 0.664062 -3.34375 0.78125 -3.46875 C 0.90625 -3.59375 1.148438 -3.65625 1.515625 -3.65625 L 2.4375 -3.65625 C 2.675781 -3.65625 2.835938 -3.691406 2.921875 -3.765625 C 3.003906 -3.847656 3.046875 -4.015625 3.046875 -4.265625 L 3.046875 -17.046875 C 3.046875 -17.285156 3.003906 -17.445312 2.921875 -17.53125 C 2.835938 -17.613281 2.675781 -17.65625 2.4375 -17.65625 L 1.515625 -17.65625 C 1.148438 -17.65625 0.90625 -17.710938 0.78125 -17.828125 C 0.664062 -17.953125 0.609375 -18.195312 0.609375 -18.5625 L 0.609375 -20.390625 C 0.609375 -20.753906 0.664062 -21 0.78125 -21.125 C 0.90625 -21.25 1.148438 -21.3125 1.515625 -21.3125 L 9.125 -21.3125 C 9.488281 -21.3125 9.734375 -21.25 9.859375 -21.125 C 9.984375 -21 10.046875 -20.753906 10.046875 -20.390625 L 10.046875 -18.5625 C 10.046875 -18.195312 9.984375 -17.953125 9.859375 -17.828125 C 9.734375 -17.710938 9.488281 -17.65625 9.125 -17.65625 L 8.21875 -17.65625 C 7.976562 -17.65625 7.816406 -17.613281 7.734375 -17.53125 C 7.648438 -17.445312 7.609375 -17.285156 7.609375 -17.046875 L 7.609375 -4.265625 C 7.609375 -4.015625 7.648438 -3.847656 7.734375 -3.765625 C 7.816406 -3.691406 7.976562 -3.65625 8.21875 -3.65625 L 9.125 -3.65625 C 9.488281 -3.65625 9.734375 -3.59375 9.859375 -3.46875 C 9.984375 -3.34375 10.046875 -3.097656 10.046875 -2.734375 L 10.046875 -0.90625 C 10.046875 -0.539062 9.984375 -0.296875 9.859375 -0.171875 C 9.734375 -0.0546875 9.488281 0 9.125 0 Z M 1.515625 0 "/></g></g></g><g fill="#000000" fill-opacity="1"><g transform="translate(253.8424, 354.513375)"><g><path d="M 2.125 0 C 1.757812 0 1.515625 -0.0546875 1.390625 -0.171875 C 1.273438 -0.296875 1.21875 -0.539062 1.21875 -0.90625 L 1.21875 -16.59375 C 1.21875 -17.320312 1.34375 -17.992188 1.59375 -18.609375 C 1.851562 -19.234375 2.207031 -19.765625 2.65625 -20.203125 C 3.113281 -20.648438 3.671875 -20.992188 4.328125 -21.234375 C 4.992188 -21.484375 5.734375 -21.609375 6.546875 -21.609375 C 7.359375 -21.609375 8.09375 -21.484375 8.75 -21.234375 C 9.40625 -20.992188 9.960938 -20.648438 10.421875 -20.203125 C 10.878906 -19.765625 11.234375 -19.234375 11.484375 -18.609375 C 11.742188 -17.992188 11.875 -17.320312 11.875 -16.59375 L 11.875 -0.90625 C 11.875 -0.539062 11.8125 -0.296875 11.6875 -0.171875 C 11.5625 -0.0546875 11.316406 0 10.953125 0 L 8.21875 0 C 7.851562 0 7.609375 -0.0546875 7.484375 -0.171875 C 7.367188 -0.296875 7.3125 -0.539062 7.3125 -0.90625 L 7.3125 -7 C 7.3125 -7.238281 7.269531 -7.398438 7.1875 -7.484375 C 7.101562 -7.566406 6.941406 -7.609375 6.703125 -7.609375 L 5.484375 -7.609375 C 5.234375 -7.609375 5.066406 -7.566406 4.984375 -7.484375 C 4.910156 -7.398438 4.875 -7.238281 4.875 -7 L 4.875 -0.90625 C 4.875 -0.539062 4.8125 -0.296875 4.6875 -0.171875 C 4.5625 -0.0546875 4.316406 0 3.953125 0 Z M 6.703125 -11.265625 C 6.941406 -11.265625 7.101562 -11.300781 7.1875 -11.375 C 7.269531 -11.457031 7.3125 -11.625 7.3125 -11.875 L 7.3125 -16.734375 C 7.3125 -17.085938 7.191406 -17.378906 6.953125 -17.609375 C 6.722656 -17.835938 6.4375 -17.953125 6.09375 -17.953125 C 5.738281 -17.953125 5.445312 -17.835938 5.21875 -17.609375 C 4.988281 -17.378906 4.875 -17.085938 4.875 -16.734375 L 4.875 -11.875 C 4.875 -11.625 4.910156 -11.457031 4.984375 -11.375 C 5.066406 -11.300781 5.234375 -11.265625 5.484375 -11.265625 Z M 6.703125 -11.265625 "/></g></g></g><g clip-path="url(#2235d18b66)"><path fill="#ff6100" d="M 82.9375 224.582031 C 86.957031 224.582031 90.214844 227.851562 90.214844 231.878906 C 90.214844 235.910156 86.957031 239.175781 82.9375 239.175781 C 78.914062 239.175781 75.65625 235.910156 75.65625 231.878906 C 75.65625 227.851562 78.914062 224.582031 82.9375 224.582031 Z M 115.160156 193.414062 C 119.179688 193.414062 122.441406 196.683594 122.441406 200.714844 C 122.441406 204.742188 119.179688 208.011719 115.160156 208.011719 C 111.140625 208.011719 107.882812 204.742188 107.882812 200.714844 C 107.882812 196.683594 111.140625 193.414062 115.160156 193.414062 Z M 132.347656 227.335938 C 136.367188 227.335938 139.628906 230.601562 139.628906 234.632812 C 139.628906 238.660156 136.367188 241.929688 132.347656 241.929688 C 128.324219 241.929688 125.066406 238.660156 125.066406 234.632812 C 125.066406 230.601562 128.324219 227.335938 132.347656 227.335938 Z M 146.90625 193.414062 C 150.929688 193.414062 154.1875 196.683594 154.1875 200.714844 C 154.1875 204.742188 150.929688 208.011719 146.90625 208.011719 C 142.886719 208.011719 139.628906 204.742188 139.628906 200.714844 C 139.628906 196.683594 142.886719 193.414062 146.90625 193.414062 Z M 171.851562 224.582031 C 175.875 224.582031 179.132812 227.851562 179.132812 231.878906 C 179.132812 235.910156 175.875 239.175781 171.851562 239.175781 C 167.832031 239.175781 164.570312 235.910156 164.570312 231.878906 C 164.570312 227.851562 167.832031 224.582031 171.851562 224.582031 Z M 171.851562 175.414062 C 175.875 175.414062 179.132812 178.679688 179.132812 182.710938 C 179.132812 186.742188 175.875 190.007812 171.851562 190.007812 C 167.832031 190.007812 164.570312 186.742188 164.570312 182.710938 C 164.570312 178.679688 167.832031 175.414062 171.851562 175.414062 Z M 186.414062 202.691406 C 190.433594 202.691406 193.691406 205.957031 193.691406 209.988281 C 193.691406 214.015625 190.433594 217.285156 186.414062 217.285156 C 182.390625 217.285156 179.132812 214.015625 179.132812 209.988281 C 179.132812 205.957031 182.390625 202.691406 186.414062 202.691406 Z M 212.074219 175.414062 C 216.09375 175.414062 219.351562 178.679688 219.351562 182.710938 C 219.351562 186.742188 216.09375 190.007812 212.074219 190.007812 C 208.050781 190.007812 204.792969 186.742188 204.792969 182.710938 C 204.792969 178.679688 208.050781 175.414062 212.074219 175.414062 Z M 221.621094 227.335938 C 221.621094 231.363281 218.363281 234.632812 214.339844 234.632812 C 210.320312 234.632812 207.058594 231.363281 207.058594 227.335938 C 207.058594 223.304688 210.320312 220.035156 214.339844 220.035156 C 218.363281 220.035156 221.621094 223.304688 221.621094 227.335938 Z M 242.269531 195.394531 C 246.289062 195.394531 249.546875 198.660156 249.546875 202.691406 C 249.546875 206.71875 246.289062 209.988281 242.269531 209.988281 C 238.246094 209.988281 234.988281 206.71875 234.988281 202.691406 C 234.988281 198.660156 238.246094 195.394531 242.269531 195.394531 Z M 266.019531 224.582031 C 270.039062 224.582031 273.300781 227.851562 273.300781 231.878906 C 273.300781 235.910156 270.039062 239.175781 266.019531 239.175781 C 261.996094 239.175781 258.738281 235.910156 258.738281 231.878906 C 258.738281 227.851562 261.996094 224.582031 266.019531 224.582031 Z M 283.800781 205.441406 C 287.824219 205.441406 291.082031 208.707031 291.082031 212.738281 C 291.082031 216.769531 287.824219 220.035156 283.800781 220.035156 C 279.78125 220.035156 276.523438 216.769531 276.523438 212.738281 C 276.523438 208.707031 279.78125 205.441406 283.800781 205.441406 Z M 67.082031 253.230469 L 310.445312 253.230469 C 313.273438 253.230469 315.53125 250.824219 315.304688 248.003906 C 311.507812 200.488281 256.304688 162.789062 188.765625 162.789062 C 121.222656 162.789062 66.019531 200.488281 62.222656 248.003906 C 61.996094 250.824219 64.257812 253.230469 67.082031 253.230469 " fill-opacity="1" fill-rule="nonzero"/></g></svg>